<svg xmlns="http://www.w3.org/2000/svg" version="1.1" xmlns:xlink="http://www.w3.org/1999/xlink" xmlns:svgjs="http://svgjs.dev/svgjs" viewBox="0 0 800 800"><defs><linearGradient x1="50%" y1="0%" x2="50%" y2="100%" id="ffflurry-grad" gradientTransform="rotate(270)"><stop stop-color="hsl(238, 82%, 13%)" stop-opacity="1" offset="0%"></stop><stop stop-color="hsl(265, 55%, 30%)" stop-opacity="1" offset="45%"></stop><stop stop-color="hsl(265, 55%, 60%)" stop-opacity="1" offset="100%"></stop></linearGradient></defs><rect width="100%" height="100%" fill="hsl(238, 82%, 13%)"></rect><g fill="url(#ffflurry-grad)"><rect width="22" height="3" x="766" y="379.5" rx="1.5" transform="rotate(45, 777, 381)" opacity="0.11"></rect><rect width="385" height="3" x="466.5" y="265.5" rx="1.5" transform="rotate(45, 659, 267)" opacity="0.46"></rect><rect width="387" height="3" x="-168.5" y="149.5" rx="1.5" transform="rotate(45, 25, 151)" opacity="0.56"></rect><rect width="198" height="3" x="-69" y="242.5" rx="1.5" transform="rotate(45, 30, 244)" opacity="0.65"></rect><rect width="176" height="3" x="641" y="312.5" rx="1.5" transform="rotate(45, 729, 314)" opacity="0.72"></rect><rect width="205" height="3" x="38.5" y="731.5" rx="1.5" transform="rotate(45, 141, 733)" opacity="0.21"></rect><rect width="24" height="3" x="273" y="649.5" rx="1.5" transform="rotate(45, 285, 651)" opacity="0.56"></rect><rect width="254" height="3" x="403" y="29.5" rx="1.5" transform="rotate(45, 530, 31)" opacity="0.36"></rect><rect width="293" height="3" x="615.5" y="634.5" rx="1.5" transform="rotate(45, 762, 636)" opacity="0.49"></rect><rect width="410" height="3" x="413" y="168.5" rx="1.5" transform="rotate(45, 618, 170)" opacity="0.07"></rect><rect width="96" height="3" x="438" y="605.5" rx="1.5" transform="rotate(45, 486, 607)" opacity="0.54"></rect><rect width="331" height="3" x="75.5" y="169.5" rx="1.5" transform="rotate(45, 241, 171)" opacity="0.59"></rect><rect width="559" height="3" x="297.5" y="576.5" rx="1.5" transform="rotate(45, 577, 578)" opacity="0.94"></rect><rect width="425" height="3" x="79.5" y="224.5" rx="1.5" transform="rotate(45, 292, 226)" opacity="0.36"></rect><rect width="294" height="3" x="566" y="204.5" rx="1.5" transform="rotate(45, 713, 206)" opacity="0.76"></rect><rect width="365" height="3" x="91.5" y="512.5" rx="1.5" transform="rotate(45, 274, 514)" opacity="0.72"></rect><rect width="433" height="3" x="405.5" y="680.5" rx="1.5" transform="rotate(45, 622, 682)" opacity="0.13"></rect><rect width="270" height="3" x="114" y="691.5" rx="1.5" transform="rotate(45, 249, 693)" opacity="0.30"></rect><rect width="516" height="3" x="-212" y="563.5" rx="1.5" transform="rotate(45, 46, 565)" opacity="0.10"></rect><rect width="406" height="3" x="128" y="661.5" rx="1.5" transform="rotate(45, 331, 663)" opacity="0.35"></rect><rect width="85" height="3" x="146.5" y="708.5" rx="1.5" transform="rotate(45, 189, 710)" opacity="0.96"></rect><rect width="34" height="3" x="221" y="462.5" rx="1.5" transform="rotate(45, 238, 464)" opacity="0.21"></rect><rect width="289" height="3" x="28.5" y="439.5" rx="1.5" transform="rotate(45, 173, 441)" opacity="0.44"></rect><rect width="538" height="3" x="318" y="314.5" rx="1.5" transform="rotate(45, 587, 316)" opacity="0.70"></rect><rect width="199" height="3" x="-70.5" y="70.5" rx="1.5" transform="rotate(45, 29, 72)" opacity="0.84"></rect><rect width="227" height="3" x="49.5" y="557.5" rx="1.5" transform="rotate(45, 163, 559)" opacity="0.89"></rect><rect width="472" height="3" x="153" y="147.5" rx="1.5" transform="rotate(45, 389, 149)" opacity="0.76"></rect><rect width="145" height="3" x="697.5" y="171.5" rx="1.5" transform="rotate(45, 770, 173)" opacity="0.10"></rect><rect width="394" height="3" x="452" y="54.5" rx="1.5" transform="rotate(45, 649, 56)" opacity="0.32"></rect><rect width="357" height="3" x="-146.5" y="673.5" rx="1.5" transform="rotate(45, 32, 675)" opacity="0.74"></rect><rect width="95" height="3" x="-20.5" y="333.5" rx="1.5" transform="rotate(45, 27, 335)" opacity="0.73"></rect><rect width="380" height="3" x="425" y="491.5" rx="1.5" transform="rotate(45, 615, 493)" opacity="0.59"></rect><rect width="106" height="3" x="281" y="355.5" rx="1.5" transform="rotate(45, 334, 357)" opacity="0.28"></rect><rect width="222" height="3" x="-22" y="458.5" rx="1.5" transform="rotate(45, 89, 460)" opacity="0.10"></rect><rect width="79" height="3" x="49.5" y="315.5" rx="1.5" transform="rotate(45, 89, 317)" opacity="0.32"></rect><rect width="328" height="3" x="484" y="429.5" rx="1.5" transform="rotate(45, 648, 431)" opacity="0.65"></rect><rect width="320" height="3" x="175" y="514.5" rx="1.5" transform="rotate(45, 335, 516)" opacity="0.35"></rect><rect width="231" height="3" x="9.5" y="506.5" rx="1.5" transform="rotate(45, 125, 508)" opacity="0.82"></rect><rect width="249" height="3" x="-1.5" y="37.5" rx="1.5" transform="rotate(45, 123, 39)" opacity="0.22"></rect><rect width="439" height="3" x="330.5" y="243.5" rx="1.5" transform="rotate(45, 550, 245)" opacity="0.58"></rect><rect width="159" height="3" x="247.5" y="748.5" rx="1.5" transform="rotate(45, 327, 750)" opacity="0.81"></rect><rect width="294" height="3" x="-54" y="758.5" rx="1.5" transform="rotate(45, 93, 760)" opacity="0.86"></rect><rect width="217" height="3" x="25.5" y="620.5" rx="1.5" transform="rotate(45, 134, 622)" opacity="0.44"></rect><rect width="326" height="3" x="244" y="772.5" rx="1.5" transform="rotate(45, 407, 774)" opacity="0.39"></rect><rect width="88" height="3" x="142" y="162.5" rx="1.5" transform="rotate(45, 186, 164)" opacity="0.26"></rect><rect width="204" height="3" x="367" y="290.5" rx="1.5" transform="rotate(45, 469, 292)" opacity="0.09"></rect><rect width="128" height="3" x="665" y="537.5" rx="1.5" transform="rotate(45, 729, 539)" opacity="0.33"></rect><rect width="251" height="3" x="429.5" y="717.5" rx="1.5" transform="rotate(45, 555, 719)" opacity="0.85"></rect><rect width="786" height="3" x="349" y="743.5" rx="1.5" transform="rotate(45, 742, 745)" opacity="0.29"></rect><rect width="485" height="3" x="434.5" y="633.5" rx="1.5" transform="rotate(45, 677, 635)" opacity="0.51"></rect><rect width="269" height="3" x="301.5" y="640.5" rx="1.5" transform="rotate(45, 436, 642)" opacity="0.49"></rect><rect width="430" height="3" x="1" y="531.5" rx="1.5" transform="rotate(45, 216, 533)" opacity="0.98"></rect><rect width="193" height="3" x="176.5" y="759.5" rx="1.5" transform="rotate(45, 273, 761)" opacity="0.61"></rect><rect width="295" height="3" x="373.5" y="97.5" rx="1.5" transform="rotate(45, 521, 99)" opacity="0.48"></rect><rect width="376" height="3" x="228" y="49.5" rx="1.5" transform="rotate(45, 416, 51)" opacity="0.78"></rect><rect width="99" height="3" x="610.5" y="355.5" rx="1.5" transform="rotate(45, 660, 357)" opacity="0.58"></rect><rect width="519" height="3" x="394.5" y="549.5" rx="1.5" transform="rotate(45, 654, 551)" opacity="0.33"></rect><rect width="316" height="3" x="36" y="294.5" rx="1.5" transform="rotate(45, 194, 296)" opacity="0.47"></rect><rect width="197" height="3" x="262.5" y="586.5" rx="1.5" transform="rotate(45, 361, 588)" opacity="0.93"></rect><rect width="411" height="3" x="298.5" y="525.5" rx="1.5" transform="rotate(45, 504, 527)" opacity="0.98"></rect><rect width="33" height="3" x="483.5" y="769.5" rx="1.5" transform="rotate(45, 500, 771)" opacity="0.57"></rect><rect width="308" height="3" x="226" y="711.5" rx="1.5" transform="rotate(45, 380, 713)" opacity="0.86"></rect><rect width="492" height="3" x="-42" y="637.5" rx="1.5" transform="rotate(45, 204, 639)" opacity="0.89"></rect><rect width="153" height="3" x="460.5" y="375.5" rx="1.5" transform="rotate(45, 537, 377)" opacity="0.66"></rect><rect width="393" height="3" x="-163.5" y="762.5" rx="1.5" transform="rotate(45, 33, 764)" opacity="0.73"></rect><rect width="262" height="3" x="253" y="646.5" rx="1.5" transform="rotate(45, 384, 648)" opacity="0.85"></rect><rect width="252" height="3" x="433" y="646.5" rx="1.5" transform="rotate(45, 559, 648)" opacity="0.69"></rect><rect width="258" height="3" x="34" y="359.5" rx="1.5" transform="rotate(45, 163, 361)" opacity="0.85"></rect><rect width="54" height="3" x="720" y="73.5" rx="1.5" transform="rotate(45, 747, 75)" opacity="0.33"></rect><rect width="358" height="3" x="-79" y="677.5" rx="1.5" transform="rotate(45, 100, 679)" opacity="0.10"></rect><rect width="490" height="3" x="301" y="456.5" rx="1.5" transform="rotate(45, 546, 458)" opacity="0.82"></rect><rect width="52" height="3" x="59" y="103.5" rx="1.5" transform="rotate(45, 85, 105)" opacity="0.17"></rect><rect width="140" height="3" x="160" y="399.5" rx="1.5" transform="rotate(45, 230, 401)" opacity="0.40"></rect><rect width="118" height="3" x="383" y="418.5" rx="1.5" transform="rotate(45, 442, 420)" opacity="0.65"></rect><rect width="111" height="3" x="126.5" y="233.5" rx="1.5" transform="rotate(45, 182, 235)" opacity="0.18"></rect><rect width="163" height="3" x="413.5" y="174.5" rx="1.5" transform="rotate(45, 495, 176)" opacity="0.60"></rect><rect width="264" height="3" x="-34" y="385.5" rx="1.5" transform="rotate(45, 98, 387)" opacity="0.62"></rect><rect width="316" height="3" x="119" y="100.5" rx="1.5" transform="rotate(45, 277, 102)" opacity="0.97"></rect><rect width="160" height="3" x="81" y="777.5" rx="1.5" transform="rotate(45, 161, 779)" opacity="0.22"></rect><rect width="161" height="3" x="335.5" y="517.5" rx="1.5" transform="rotate(45, 416, 519)" opacity="0.40"></rect><rect width="177" height="3" x="293.5" y="232.5" rx="1.5" transform="rotate(45, 382, 234)" opacity="0.88"></rect><rect width="354" height="3" x="405" y="768.5" rx="1.5" transform="rotate(45, 582, 770)" opacity="0.36"></rect><rect width="243" height="3" x="199.5" y="41.5" rx="1.5" transform="rotate(45, 321, 43)" opacity="0.43"></rect><rect width="508" height="3" x="72" y="432.5" rx="1.5" transform="rotate(45, 326, 434)" opacity="0.22"></rect><rect width="481" height="3" x="24.5" y="588.5" rx="1.5" transform="rotate(45, 265, 590)" opacity="0.38"></rect><rect width="47" height="3" x="5.5" y="431.5" rx="1.5" transform="rotate(45, 29, 433)" opacity="0.22"></rect><rect width="139" height="3" x="149.5" y="767.5" rx="1.5" transform="rotate(45, 219, 769)" opacity="0.29"></rect><rect width="162" height="3" x="364" y="717.5" rx="1.5" transform="rotate(45, 445, 719)" opacity="0.34"></rect><rect width="151" height="3" x="699.5" y="274.5" rx="1.5" transform="rotate(45, 775, 276)" opacity="0.52"></rect><rect width="593" height="3" x="-95.5" y="50.5" rx="1.5" transform="rotate(45, 201, 52)" opacity="0.63"></rect><rect width="226" height="3" x="270" y="313.5" rx="1.5" transform="rotate(45, 383, 315)" opacity="0.92"></rect><rect width="466" height="3" x="-128" y="253.5" rx="1.5" transform="rotate(45, 105, 255)" opacity="0.88"></rect><rect width="155" height="3" x="-32.5" y="20.5" rx="1.5" transform="rotate(45, 45, 22)" opacity="0.88"></rect><rect width="370" height="3" x="74" y="334.5" rx="1.5" transform="rotate(45, 259, 336)" opacity="0.21"></rect><rect width="298" height="3" x="-7" y="139.5" rx="1.5" transform="rotate(45, 142, 141)" opacity="0.32"></rect><rect width="309" height="3" x="497.5" y="751.5" rx="1.5" transform="rotate(45, 652, 753)" opacity="0.22"></rect><rect width="489" height="3" x="480.5" y="409.5" rx="1.5" transform="rotate(45, 725, 411)" opacity="0.62"></rect><rect width="100" height="3" x="716" y="482.5" rx="1.5" transform="rotate(45, 766, 484)" opacity="0.38"></rect><rect width="40" height="3" x="480" y="694.5" rx="1.5" transform="rotate(45, 500, 696)" opacity="0.67"></rect><rect width="288" height="3" x="-60" y="184.5" rx="1.5" transform="rotate(45, 84, 186)" opacity="0.56"></rect></g></svg>